<svg width="384" height="192" viewBox="0 0 384 192" fill="none" xmlns="http://www.w3.org/2000/svg">
<path d="M16 176H0V192H16V176Z" fill="#00D0FD"/>
<path d="M32 176V160H16V176V192H32V176Z" fill="#5B8BF5"/>
<path d="M96 128H80V144V160H64H48H32V176H48H64H80H96V160V144H112H128V128H112H96Z" fill="#FF3815"/>
<path d="M48 160V144V128H32H16V144V160H32H48Z" fill="#D500E6"/>
<path d="M0 0H16.9C30.5 0 40 9.5 40 23.8C40 38.9 30.8 48 16.5 48H0V0ZM15.4 41.6C27 41.6 32.7 35.6 32.7 23.8C32.7 13.1 27 6.3 15.8 6.3H6.8V41.6H15.4V41.6Z" fill="#0A0A0A"/>
<path d="M50.8 0H84.7V6.3H57.6V20H77.7V26.2H57.6V41.6H84.7V47.9H50.8V0Z" fill="#0A0A0A"/>
<path d="M91.4 0H99L108.8 31.6C110 35.4 110.3 38.3 110.5 42.4H113.4C113.5 38.8 114 35.6 115.2 31.7L125.1 0H132.6L117 47.9H106.9L91.4 0Z" fill="#0A0A0A"/>
<path d="M0 64.1H19.5C29.5 64.1 35.5 70.1 35.5 78.7C35.5 87.4 29.5 93.4 19.4 93.4H6.8V112H0V64.1ZM18.2 87.3C24.8 87.3 28.3 83.6 28.3 78.6C28.3 73.6 24.9 70.3 18.2 70.3H6.8V87.3H18.2Z" fill="#0A0A0A"/>
<path d="M44.3999 64.1H64.8999C74.5999 64.1 80.3999 69.7 80.3999 77.1C80.3999 80.8 79.1999 83.5 76.7999 85.2C74.3999 86.9 71.4999 87.8 67.9999 88V90.9C74.8999 91 77.4999 93.4 78.8999 100L81.1999 112.1H73.6999L71.6999 100.7C70.6999 94.6 67.5999 92.3 61.0999 92.3H51.1999V112H44.3999V64.1V64.1ZM63.8999 86C69.5999 86 73.1999 83.3 73.1999 78.1C73.1999 72.9 69.5999 70.3 63.8999 70.3H51.2999V86H63.8999Z" fill="#0A0A0A"/>
<path d="M113 63.1C126.6 62.9 137.1 73.4 136.9 88C137.1 102.7 126.6 113.1 113 112.9C99.4001 113.1 88.7001 102.6 88.9001 88C88.7001 73.4 99.5001 62.9 113 63.1ZM113 69.3C102.6 69.3 96.3001 77.3 96.3001 88C96.3001 98.9 102.6 106.7 113 106.7C123.3 106.7 129.7 98.9 129.7 88C129.7 77.3 123.3 69.3 113 69.3Z" fill="#0A0A0A"/>
<path d="M157.3 70.4H140.4V64.1H181.7V70.4H164.2V112H157.4V70.4H157.3Z" fill="#0A0A0A"/>
<path d="M209.1 63.1C222.7 62.9 233.2 73.4 233 88C233.2 102.7 222.7 113.1 209.1 112.9C195.5 113.1 184.8 102.6 185 88C184.8 73.4 195.5 62.9 209.1 63.1ZM209 69.3C198.6 69.3 192.3 77.3 192.3 88C192.3 98.9 198.6 106.7 209 106.7C219.3 106.7 225.7 98.9 225.7 88C225.7 77.3 219.3 69.3 209 69.3Z" fill="#0A0A0A"/>
<path d="M264.5 63.1C276.2 63.1 283.5 70.1 285.5 77.3L278.7 79.8C277.8 77 276.2 74.6 274 72.5C271.8 70.4 268.7 69.3 264.5 69.3C254.8 69.3 248.3 76.2 248.3 87.5C248.3 99 254.8 106.6 264.5 106.6C272.8 106.6 276.8 102.4 279 95.8L285.6 98.3C283.3 106.5 275.9 112.9 264.5 112.9C249.9 113.1 240.8 101.7 241 87.6C240.8 73.8 250.9 62.8 264.5 63.1Z" fill="#0A0A0A"/>
<path d="M316.3 63.1C329.9 62.9 340.4 73.4 340.2 88C340.4 102.7 329.9 113.1 316.3 112.9C302.7 113.1 292 102.6 292.2 88C292 73.4 302.8 62.9 316.3 63.1ZM316.3 69.3C305.9 69.3 299.6 77.3 299.6 88C299.6 98.9 305.9 106.7 316.3 106.7C326.6 106.7 333 98.9 333 88C333 77.3 326.6 69.3 316.3 69.3Z" fill="#0A0A0A"/>
<path d="M351.3 64.1H358.1V105.6H384V112H351.3V64.1Z" fill="#0A0A0A"/>
</svg>
